<svg xmlns="http://www.w3.org/2000/svg" width="509" height="490" viewBox="0 0 509 490"><g id="others"><path id="2" d="M 421.465,460.979 C 409.546,458.611 398.573,449.972 392.932,438.513 C 389.625,431.795 389.500,431.123 389.500,420.021 C 389.500,409.504 389.737,408.018 392.222,402.963 C 406.274,374.377 443.597,370.324 462.550,395.327 C 485.341,425.393 458.471,468.330 421.465,460.979" stroke="#FFFFFF" fill="#FFFFFF" stroke-width="1" />
  <path id="2" d="M 223.500,448.319 C 178.086,442.548 144.483,428.557 110.441,401.247 C 70.953,369.568 44.872,325.830 34.863,274.500 C 32.795,263.894 32.521,259.596 32.511,237.500 C 32.501,215.366 32.767,211.124 34.835,200.500 C 46.315,141.513 79.865,91.402 129.516,59.082 C 182.327,24.705 248.828,16.191 308.494,36.167 C 367.205,55.823 416.453,103.015 438.766,161 C 448.946,187.454 453,209.242 453,237.500 C 453,262.231 449.811,281.662 441.849,305.434 C 437.468,318.516 424.532,345.645 422.040,346.979 C 421.193,347.432 418.250,348.123 415.500,348.514 C 396.223,351.255 376.558,366.066 365.667,386.049 C 362.118,392.561 360.056,398.787 358.008,409.176 C 358.008,409.176 356.889,414.852 356.889,414.852 C 356.889,414.852 347.194,420.381 347.194,420.381 C 321.959,434.773 296.980,443.412 268.872,447.467 C 259.188,448.864 231.830,449.378 223.500,448.319M 260.500,373.532 C 307.017,366.873 346.558,337.326 366.746,294.140 C 381.387,262.821 383.384,227.979 372.458,194.500 C 359.445,154.626 326.522,121.248 286.500,107.351 C 271,101.969 262.706,100.663 243.500,100.579 C 219.479,100.474 204.197,103.706 184.500,113.058 C 164.783,122.420 141.950,141.805 130.308,159.065 C 106.515,194.342 99.634,237.458 111.487,277 C 118.294,299.708 134.886,325.262 152.734,340.526 C 183.951,367.223 222.372,378.990 260.500,373.532" stroke="#FFFFFF" fill="#FFFFFF" stroke-width="1" />
</g></svg>